<svg version="1.1" xmlns="http://www.w3.org/2000/svg" width='260' height='260' viewBox="0 0 260 260" style="enable-background:new 0 0 260 260" xml:space="preserve"><style>.st1{fill-rule:evenodd;clip-rule:evenodd}.st1,.st2{fill:#898989;fill-opacity:6.000000e-02}</style><path style="fill:#141414" d="M0 .1h259.9V260H0z"/><path class="st1" d="M159.5 21c-1.3-3.6-4.7-6-8.5-6h-42c-3.8 0-7.2 2.4-8.5 6-3.3.3-5.8 3.2-5.5 6.5.2 2.9 2.6 5.2 5.5 5.5-1.7 4.7.8 9.8 5.4 11.5 1 .3 2 .5 3 .5h42c5 0 9-4 9-9 0-1-.2-2.1-.5-3 3.3-.3 5.8-3.2 5.5-6.5-.2-2.9-2.5-5.2-5.4-5.5zm-8.5-4h-42c-2.7 0-5.2 1.6-6.3 4h54.7c-1.2-2.4-3.7-4-6.4-4zm-9.3 26c2.1-1.7 3.3-4.3 3.3-7h-2c0 3.9-3.1 7-7 7h-4.3c2.1-1.7 3.3-4.3 3.3-7h-2c0 3.9-3.1 7-7 7h-4.3c2.1-1.7 3.3-4.3 3.3-7h-2c0 3.9-3.1 7-7 7h-7c-3.9 0-7-3.1-7-7s3.1-7 7-7h42c3.9 0 7 3.1 7 7s-3.1 7-7 7h-9.3zM109 27c-3 0-5.8 1.5-7.5 4h-.5c-2.2 0-4-1.8-4-4s1.8-4 4-4h58c2.2 0 4 1.8 4 4s-1.8 4-4 4h-.5c-1.7-2.5-4.5-4-7.5-4h-42zM39 115c4.4 0 8-3.6 8-8s-3.6-8-8-8-8 3.6-8 8 3.6 8 8 8zm6-8c0 3.3-2.7 6-6 6s-6-2.7-6-6 2.7-6 6-6 6 2.7 6 6zm-3-29v-2h8v-6H40c-2.2 0-4 1.8-4 4v10H22l-1.3 4-.7 2h2.2l3.8 40h26l3.8-40H58l-.7-2-1.3-4H42v-6zm-4-4v10h2V74h8v-2h-8c-1.1 0-2 .9-2 2zm2 12h14.6l.7 2H22.8l.7-2H40zm13.8 4H24.2l3.6 38h22.4l3.6-38zM129 92h-6v4h-6v4h-6v14h-3l.2 2 3.8 32h36l3.8-32 .2-2h-3v-14h-6v-4h-6v-4h-8zm18 22v-12h-4v4h3v8h1zm-3 0v-6h-4v6h4zm-6 6v-16h-4v19.2c1.6-.7 3-1.8 4-3.2zm-6 3.8V100h-4v23.8c1.3.3 2.7.3 4 0zm-6-.6V104h-4v16c1 1.4 2.4 2.5 4 3.2zm-6-9.2v-6h-4v6h4zm-6 0v-8h3v-4h-4v12h1zm27-12v-4h-4v4h3v4h1v-4zm-6 0v-8h-4v4h3v4h1zm-6-4v-4h-4v8h1v-4h3zm-6 4v-4h-4v8h1v-4h3zm7 24c5.9 0 10.9-4.2 11.8-10h7.9l-3.5 30h-32.4l-3.5-30h7.9c.9 5.8 5.9 10 11.8 10zM22.5 28v-6.7l.2-.1-.4-.9-1.1-2.3h3.7c-.1-.7-.3-1.3-.5-2C21.9 8.2 15.4 2.3 7.5.6 5 0 2.4-.1 0 .1v2c3.1-.4 6.3-.1 9.5 1 6 2.1 10.7 6.8 12.8 12.8h-2.1l-.1-.1-.3.2H0v3.5c.3 0 .6-.1.9-.3l2.2-1.1c.1-.1.3-.1.4-.1.2 0 .3 0 .5.1l2.3 1.2c.8.4 1.7.4 2.6.1l2.8-1.2c.1-.2.2-.2.3-.2.1 0 .3 0 .4.1l2.8 1.2c.8.4 1.8.3 2.6-.1l1.4-.7.9 1.8-3.1 1.6c-.3.1-.6.1-.8 0l-2.9-1.3c-.8-.3-1.7-.3-2.4 0L8 21.9c-.3.1-.6.1-.9 0l-2.2-1.1c-.8-.4-1.8-.4-2.7 0L0 21.9V24c.3 0 .6-.1.9-.3l1.4-.7h2.6l1.4.7c.7.4 1.7.4 2.5 0l1.7-.7h3.2l1.7.7c.8.4 1.8.3 2.6-.1l1.4-.7h1.3v2H0v2h18.9l-16.4 5-2.5-.8v2.1l2.5.8 16.7-5h.3c1.7 0 3 1.3 3 3s-1.3 3-3 3H0v2h18.2c-.8 2.4-3.1 4-5.7 4H0v2h12.5c3.6 0 6.8-2.5 7.8-6v-.1c1.3-.2 2.4-.9 3.2-1.9 1.7-2.2 1.3-5.3-1-7z"/><path class="st2" d="M18.7 205.6c.9-1.9 0-4.2-1.9-5.2.8-2.7-.8-5.4-3.4-6.2-.4-.5-.9-.9-1.5-1-.1-.7-.4-1.4-.8-2-1.6-2.3-4.7-2.9-7-1.3-1.3-1-2.7-1.8-4.2-2.5v2.2c8.7 4.8 14.7 13.9 15 24.5H0v2h17v-2.4c.5-.2 1-.6 1.5-1 2-1.9 2.1-5.1.2-7.1zM8.8 194c-.9-1-1.9-1.9-2.9-2.8 1.5-.6 3.3.1 3.9 1.7 0 .1.1.2.1.3-.4.2-.8.4-1.1.8zm2.4 3c-.4-.5-.7-1-1.1-1.4.1-.3.4-.4.7-.5.5-.1 1.1.2 1.2.8.1.4-.2.9-.8 1.1zm2.6 4.4c-.5-.9-.9-1.8-1.5-2.7.8-.4 1.4-1.1 1.6-2 1.3 1.1 1.4 3 .4 4.2-.1.2-.3.3-.5.5zm.9 1.8c.4-.3.8-.6 1.2-1 1 .5 1.4 1.7 1 2.7-.2.5-.6.9-1.2 1-.3-.9-.7-1.8-1-2.7zm2.1 8.2-.6-3.6c.5-.1.9-.3 1.2-.6 1 1.3.7 3.2-.6 4.2z"/><path class="st2" d="M3 210c0 .6.4 1 1 1h2c.6 0 1-.4 1-1s-.4-1-1-1H4c-.6 0-1 .4-1 1zM5 199H3c-.6 0-1 .4-1 1s.4 1 1 1h2c.6 0 1-.4 1-1s-.4-1-1-1z"/><path class="st1" d="M259.9 41h-7.4c-2.5 0-4.8-1.6-5.6-4h13v-2h-14.4c-1.7 0-3-1.3-3-3s1.3-3 3-3h.3l14 4.2v-2.1L246.2 27H260v-2h-15.4v-1.2l.3-.2 1.4-.7h2.6l1.4.7c.8.4 1.8.4 2.7 0l1.4-.7h2.6l1.4.7c.5.3 1.1.3 1.7.3v-2c-.3.1-.6.1-.8 0l-2.2-1.1c-.8-.4-1.8-.4-2.7 0l-2.2 1.1c-.3.1-.6.1-.9 0l-2.2-1.1c-.8-.4-1.8-.4-2.7 0l-1.3.7-.9-1.8 3.1-1.6c.1-.1.3-.1.4-.1.2 0 .3 0 .5.1l2.2 1.1c.8.4 1.8.4 2.7 0l2.2-1.1c.1-.1.3-.1.4-.1.2 0 .3 0 .5.1l2.2 1.1c.5.3 1.1.3 1.7.3V16h-17.3c2.8-7.8 9.6-12.9 17.3-13.8v-2c-9.5 1-17.7 8-19.9 17.9h2.9l-.6.3-.9.4.4.9.8 1.6V28c-1 .8-1.7 1.9-1.9 3.2-.4 2.7 1.5 5.3 4.2 5.7v.1c.9 3.5 4.1 6 7.7 6h7.4v-2z"/><circle class="st2" cx="140" cy="225" r="1"/><circle class="st2" cx="145" cy="205" r="1"/><circle class="st2" cx="153" cy="207" r="1"/><circle class="st2" cx="140" cy="219" r="1"/><circle class="st2" cx="148" cy="210" r="1"/><circle class="st2" cx="142" cy="210" r="1"/><circle class="st2" cx="149" cy="230" r="1"/><circle class="st2" cx="144" cy="232" r="1"/><circle class="st2" cx="137" cy="213" r="1"/><path class="st2" d="M76 197c0 1.1-.9 2-2 2-.7 0-1.3-.3-1.7-.9-.2-.3-.3-.7-.3-1.1v-12h-2v12c0 2.2 1.8 4 4 4 1.2 0 2.3-.5 3.1-1.4.6-.7.9-1.6.9-2.5v-12h-2V197z"/><path class="st2" d="M80.9 178.9c-2.2.5-4.3-.9-4.8-3-.4.1-.7.1-1.1.1-2.8 0-5-2.2-5-5-7.7 0-14 6.3-14 14v24c0 3.3 2.7 6 6 6h3v9c0 2.8 2.2 5 5 5s5-2.2 5-5v-9h3c3.3 0 6-2.7 6-6v-24c0-2.3-.6-4.7-1.7-6.7-.4.3-.9.5-1.4.6zM73 224c0 1.7-1.3 3-3 3s-3-1.3-3-3v-9h6v9zm9-15c0 2.2-1.8 4-4 4H62c-2.2 0-4-1.8-4-4v-2.5c.2.1.4.2.7.3.4.2.9.2 1.4.2 2.2 0 4-1.8 3.9-4v-12h-2v12c0 .4-.1.8-.3 1.1-.5.8-1.6 1.1-2.4.7-.7-.3-1.2-1-1.2-1.8v-18c0-6 4.4-11 10.3-11.9.9 2.8 3.5 4.8 6.5 4.9 1.1 1.9 3.1 3 5.2 3 .4 0 .8-.1 1.3-.2.5 1.3.7 2.6.7 4.2v24zM223 206c-.6 0-1 .4-1 1s.4 1 1 1h2c.6 0 1-.4 1-1s-.4-1-1-1h-2z"/><path class="st2" d="M215 216h44.9v-2H217c.5-15.3 12.8-27.6 28.1-28.1 5.4-.2 10.5 1.1 14.8 3.5v-2.2c-4.2-2.1-8.9-3.3-13.9-3.3-6.5 0-12.9 2-18.2 5.9-.6-.4-1.3-.7-2-.8-2.7-.5-5.3 1.4-5.8 4.1-.6.2-1.1.6-1.5 1-2.6.8-4.2 3.6-3.4 6.2-1.9.9-2.7 3.2-1.9 5.2-.4.4-.7.9-.9 1.4-1.1 2.5.1 5.5 2.6 6.6v2.5zm10.8-24.9c.1 0 .2.1.3.1-1 .9-2 1.8-2.9 2.8-.3-.3-.7-.6-1.1-.8.4-1.6 2.1-2.5 3.7-2.1zm-5.3 4c.5-.3 1.1-.1 1.4.4-.4.5-.8 1-1.1 1.5-.3-.1-.5-.2-.7-.5-.2-.5-.1-1.1.4-1.4zm-2.9 2c.1-.2.3-.3.4-.5.2.9.8 1.6 1.6 2l-1.5 2.7c-1.3-1-1.5-2.8-.5-4.2zm-2.5 6.3c.2-.5.6-.9 1.1-1.2.3.4.7.8 1.2 1-.4.9-.7 1.8-1 2.7-1.1-.4-1.7-1.5-1.3-2.5zm-.5 3.8c.4.3.8.5 1.2.6-.3 1.2-.5 2.4-.6 3.6-1.3-1-1.6-2.9-.6-4.2z"/><circle class="st2" cx="159" cy="214" r="1"/><circle class="st2" cx="135" cy="220" r="1"/><circle class="st2" cx="159" cy="209" r="1"/><circle class="st2" cx="154" cy="234" r="1"/><path class="st2" d="M253 210c-.6 0-1 .4-1 1s.4 1 1 1h2c.6 0 1-.4 1-1s-.4-1-1-1h-2zM214 86h2v2h-2zM238 211h2c.6 0 1-.4 1-1s-.4-1-1-1h-2c-.6 0-1 .4-1 1s.4 1 1 1zM236 195h-2c-.6 0-1 .4-1 1s.4 1 1 1h2c.6 0 1-.4 1-1s-.4-1-1-1zM208 86h4v2h-4zM257 195c0-.6-.4-1-1-1h-2c-.6 0-1 .4-1 1s.4 1 1 1h2c.6 0 1-.4 1-1zM150 196c-13.3 0-24 10.7-24 24s10.7 24 24 24 24-10.7 24-24-10.7-24-24-24zm0 46c-12.2 0-22-9.8-22-22s9.8-22 22-22 22 9.8 22 22-9.8 22-22 22zM228 210c-.6 0-1 .4-1 1s.4 1 1 1h2c.6 0 1-.4 1-1s-.4-1-1-1h-2zM248 205c-.6 0-1 .4-1 1s.4 1 1 1h2c.6 0 1-.4 1-1s-.4-1-1-1h-2z"/><path class="st2" d="m214.4 126.5 7-24.5c.9 0 1.7-.6 2-1.5l1.1-4.5.1-.3c2.6-.9 4.1-3.7 3.2-6.3-.6-1.7-2-3-3.8-3.3V86c0-7.7-6.3-14-14-14s-14 6.3-14 14v.1c-2.7.6-4.5 3.2-3.9 5.9.4 1.8 1.6 3.2 3.3 3.8l.1.3 1.1 4.5c.2.9 1 1.5 1.9 1.5l7 24.5c.2.9 1 1.4 1.9 1.5h5c1-.1 1.8-.7 2-1.6zM197 94c-1.7 0-3-1.3-3-3s1.3-3 3-3h9v-2h-8c0-6.6 5.4-12 12-12s12 5.4 12 12h-2v2h3c1.7 0 3 1.3 3 3s-1.3 3-3 3h-26zm1.6 6-1-4h24.9l-1 4h-22.9zm2.1 2h18.7l-6.9 24h-5l-6.8-24z"/><circle class="st2" cx="160" cy="221" r="1"/><circle class="st2" cx="158" cy="228" r="1"/><path class="st2" d="M243 201c.6 0 1-.4 1-1s-.4-1-1-1h-2c-.6 0-1 .4-1 1s.4 1 1 1h2zM150 213c-3.9 0-7 3.1-7 7s3.1 7 7 7 7-3.1 7-7-3.1-7-7-7zm0 12c-2.8 0-5-2.2-5-5s2.2-5 5-5 5 2.2 5 5-2.2 5-5 5z"/><circle class="st2" cx="164" cy="224" r="1"/><path class="st2" d="M162.3 205.8c-1.1-.2-2-.9-2.5-1.8l-1.1-1.9c-1-1.7-3.2-2.4-5-1.6l-2 .9c-1 .4-2.1.4-3.1 0l-2-.9c-1.8-.8-4-.1-5 1.6l-1.1 1.9c-.6.9-1.5 1.6-2.5 1.8l-2.1.5c-1.9.4-3.3 2.3-3.1 4.2l.2 2.2c.1 1.1-.3 2.2-1 3l-1.5 1.7c-1.3 1.5-1.3 3.7 0 5.2l1.5 1.7c.7.8 1.1 1.9 1 3l-.2 2.2c-.2 2 1.1 3.8 3.1 4.3l2.1.5c1.1.2 2 .9 2.5 1.8l1.1 1.9c1 1.7 3.2 2.4 5 1.6l2-.9c1-.4 2.1-.4 3.1 0l2 .9c1.8.8 4 .1 5-1.6l1.1-1.9c.6-.9 1.5-1.6 2.5-1.8l2.1-.5c1.9-.4 3.3-2.3 3.1-4.2l-.2-2.2c-.1-1.1.3-2.2 1-3l1.4-1.7c1.3-1.5 1.3-3.7 0-5.2l-1.4-1.7c-.7-.8-1.1-1.9-1-3l.2-2.2c.2-2-1.1-3.8-3.1-4.3l-2.1-.5zm3.2 4.6-.2 2.2c-.1 1.6.4 3.2 1.5 4.5l1.5 1.7c.7.8.7 1.9 0 2.6l-1.5 1.7c-1.1 1.2-1.6 2.8-1.5 4.5l.2 2.2c.1 1-.6 1.9-1.5 2.1l-2.1.5c-1.6.4-3 1.4-3.8 2.8l-1.1 1.9c-.5.9-1.6 1.2-2.5.8l-2-.9c-1.5-.6-3.2-.6-4.7 0l-2 .9c-.9.4-2 .1-2.5-.8L142 235c-.8-1.4-2.2-2.4-3.8-2.8l-2.2-.5c-1-.2-1.6-1.1-1.5-2.1l.2-2.2c.1-1.6-.4-3.2-1.5-4.5l-1.5-1.7c-.7-.8-.7-1.9 0-2.6l1.5-1.7c1.1-1.2 1.6-2.8 1.5-4.5l-.2-2.2c-.1-1 .6-1.9 1.5-2.1l2.2-.5c1.6-.4 3-1.4 3.8-2.8l1.1-1.9c.5-.9 1.6-1.2 2.5-.8l2 .9c1.5.6 3.2.6 4.7 0l2-.9c.9-.4 2-.1 2.5.8l1.1 1.9c.8 1.4 2.2 2.4 3.8 2.8l2.2.5c1 .4 1.7 1.3 1.6 2.3z"/><circle class="st2" cx="164" cy="218" r="1"/><path class="st2" d="M246 192c0-.6-.4-1-1-1h-2c-.6 0-1 .4-1 1s.4 1 1 1h2c.6 0 1-.4 1-1z"/><path style="fill:none" d="M-.1 0h260v260H-.1z" preserveAspectRatio="xMinYMax meet" /></svg>